<svg xmlns="http://www.w3.org/2000/svg" viewBox="0 0 215.522 63.9106"><defs><style>.cls-1,.cls-2{fill:#fff;stroke:#fff;}.cls-1{stroke-width:6px;}.cls-2{stroke-width:4.6045px;}.cls-3{fill:#005daa;}.cls-4{fill:#e31837;}</style></defs><title>costco-optical</title><g id="White_Outline" data-name="White Outline"><polygon class="cls-1" points="4.3 51.791 4.3 55.418 127.705 55.418 128.279 51.791 4.3 51.791"/><polygon class="cls-1" points="127.446 57.057 4.3 57.057 4.3 60.684 126.873 60.681 127.446 57.057"/><polygon class="cls-1" points="4.3 46.416 4.3 50.259 128.521 50.259 129.13 46.416 4.3 46.416"/><path class="cls-1" d="M111.8632,21.0986l7.8067-.2925-6.55,21.582h14.0048l6.55-21.582,7.629.2925,3.1093-10.2471h-29.44Z"/><path class="cls-1" d="M82.8652,26.7036C80.9072,36.8252,70.1757,42.89,58.42,42.89S38.28,36.8252,40.2387,26.7036C42.1562,16.7905,53.0112,10.35,64.7158,10.35S84.7831,16.7905,82.8652,26.7036Zm-28.5528.167c-.6953,3.5971,1.7915,6.0649,6.0337,6.0649s7.6841-2.4678,8.38-6.0649c.6475-3.3457-1.57-6.148-6.0171-6.148S54.96,23.5249,54.3124,26.8706Z"/><path class="cls-1" d="M78.5126,40.0044A36.86,36.86,0,0,0,92.7763,42.89c8.3311,0,17.4336-3.7227,18.89-11.251,1.0361-5.354-2.7559-7.9472-8.4742-9.0346l-3.0556-.5855c-1.0327-.209-2.7383-.3765-2.5117-1.5478.2509-1.2964,2.1127-1.6729,3.3393-1.6729a14.2422,14.2422,0,0,1,7.6651,2.3838l5.3447-8.0723a23.7228,23.7228,0,0,0-11.6822-2.76c-8.3818,0-17.5224,4.1826-18.9707,11.6694-.955,4.9356,3.1353,7.57,8.4507,8.3652l2.73.418c1.2373.21,3.0532.335,2.7778,1.7568s-2.5615,1.8824-3.9419,1.8824a13.97,13.97,0,0,1-8.1816-2.8863l-.6265-.46Z"/><path class="cls-1" d="M171.6757,11.646a32.5413,32.5413,0,0,0-9.1543-1.2964c-11.2949,0-21.56,7.3613-23.3418,16.563C137.44,35.9052,144.6757,42.89,155.664,42.89c2.5049,0,7.791-.3765,10.21-1.2549l2.69-11.7949a14.778,14.778,0,0,1-8.59,2.9277c-4.1915,0-7.3028-2.6767-6.6309-6.1484.6631-3.43,4.6143-6.1484,8.8047-6.1484a11.3569,11.3569,0,0,1,7.6142,3.1787Z"/><path class="cls-1" d="M194.0976,10.35c-11.7041,0-22.56,6.4409-24.4775,16.354-1.958,10.1216,6.4267,16.1865,18.1826,16.1865s22.4862-6.0649,24.4452-16.1865C214.1649,16.7905,205.8027,10.35,194.0976,10.35Zm-2.0059,10.373c4.4463,0,6.6641,2.8023,6.0166,6.148-.6962,3.5971-4.1377,6.0649-8.38,6.0649s-6.73-2.4678-6.0332-6.0649C184.3417,23.5249,187.6445,20.7226,192.0917,20.7226Z"/><path class="cls-1" d="M43.8505,4.5673A41.7886,41.7886,0,0,0,32.4335,3C18.3456,3,5.5414,11.8984,3.3217,23.021c-2.17,10.87,6.8545,19.3139,20.56,19.3139,3.1235,0,9.7163-.4555,12.7334-1.5171l3.3554-14.2573A18.8214,18.8214,0,0,1,29.2563,30.1c-5.2271,0-9.1074-3.2359-8.27-7.4322.8276-4.146,5.7544-7.4321,10.9814-7.4321a14.3918,14.3918,0,0,1,9.4966,3.8423Z"/><path class="cls-2" d="M206.21,40.5571a2.5929,2.5929,0,0,1,2.58-1.8516c1.2363,0,2.07.8262,1.8769,1.8516a2.5957,2.5957,0,0,1-2.582,1.8574C206.8426,42.4145,206.0146,41.5893,206.21,40.5571Zm3.8769,0c.1563-.8262-.4375-1.3662-1.3887-1.3662a1.8122,1.8122,0,0,0-1.9063,1.3662c-.1582.8271.418,1.373,1.3848,1.373A1.8355,1.8355,0,0,0,210.0868,40.5571Z"/></g><g id="Layer_1" data-name="Layer 1"><polygon class="cls-3" points="4.3 51.791 4.3 55.418 137.938 55.418 138.56 51.791 4.3 51.791"/><polygon class="cls-3" points="137.658 57.057 4.3 57.057 4.3 60.684 137.038 60.681 137.658 57.057"/><polygon class="cls-3" points="4.3 46.416 4.3 50.259 138.823 50.259 139.482 46.416 4.3 46.416"/></g><g id="hite_OL_type" data-name="hite OL_type"><path class="cls-1" d="M141.4,53.5175c-.7256,4.6231-4.7373,7.3931-9.1318,7.3931s-7.5264-2.77-6.8008-7.3931a9.0887,9.0887,0,0,1,9.15-7.47C138.9931,46.0478,142.1259,48.99,141.4,53.5175Zm-10.66.0767a2.182,2.182,0,0,0,2.2549,2.77,3.1653,3.1653,0,0,0,3.1328-2.77,2.2342,2.2342,0,0,0-2.2549-2.8086A3.211,3.211,0,0,0,130.74,53.5942Z"/><path class="cls-1" d="M143.0585,46.2773h6.63c3.3623,0,5.5781,1.7192,5.0244,5.2915a5.3624,5.3624,0,0,1-5.5214,4.7764h-2.6749l-.6875,4.3364h-5.0439Zm4.0313,6.438h.5156c.917,0,1.93-.1528,2.1211-1.3184.1719-1.1269-.8789-1.1845-1.7383-1.1845h-.497Z"/><path class="cls-1" d="M155.3974,46.2773h11.0039l-.7266,4.68-2.8652-.1338-1.5664,9.8579h-5.2344l1.5664-9.8579-2.9043.1338Z"/><path class="cls-1" d="M167.2392,46.2773h5.2344L170.2,60.6816h-5.2343Z"/><path class="cls-1" d="M183.3232,52.123a3.925,3.925,0,0,0-2.8457-1.4517,3.425,3.425,0,0,0-3.2861,2.8082,2.3824,2.3824,0,0,0,2.4638,2.8081,4.9622,4.9622,0,0,0,3.2285-1.337l-1.0117,5.3873a12.4546,12.4546,0,0,1-3.8213.5727,6.01,6.01,0,0,1-6.1513-7.2974,9.0788,9.0788,0,0,1,8.7119-7.5654,10.05,10.05,0,0,1,3.4189.5923Z"/><path class="cls-1" d="M187.1035,60.6816h-5.54l7.2783-14.4043h5.7891l2.8652,14.4043h-5.54l-.1914-1.7959h-3.9541Zm4.2793-5.2153-.21-2.541c-.0576-.6114-.0381-1.2417-.0381-1.8531h-.1914l-1.6621,4.3941Z"/><path class="cls-1" d="M199.5185,46.2773h5.2344l-1.5479,9.7813H207.6l-.7266,4.623h-9.6278Z"/></g><g id="Type_Blue" data-name="Type Blue"><path class="cls-3" d="M141.4,53.5175c-.7256,4.6231-4.7373,7.3931-9.1318,7.3931s-7.5264-2.77-6.8008-7.3931a9.0887,9.0887,0,0,1,9.15-7.47C138.9931,46.0478,142.1259,48.99,141.4,53.5175Zm-10.66.0767a2.182,2.182,0,0,0,2.2549,2.77,3.1653,3.1653,0,0,0,3.1328-2.77,2.2342,2.2342,0,0,0-2.2549-2.8086A3.211,3.211,0,0,0,130.74,53.5942Z"/><path class="cls-3" d="M143.0585,46.2773h6.63c3.3623,0,5.5781,1.7192,5.0244,5.2915a5.3624,5.3624,0,0,1-5.5214,4.7764h-2.6749l-.6875,4.3364h-5.0439Zm4.0313,6.438h.5156c.917,0,1.93-.1528,2.1211-1.3184.1719-1.1269-.8789-1.1845-1.7383-1.1845h-.497Z"/><path class="cls-3" d="M155.3974,46.2773h11.0039l-.7266,4.68-2.8652-.1338-1.5664,9.8579h-5.2344l1.5664-9.8579-2.9043.1338Z"/><path class="cls-3" d="M167.2392,46.2773h5.2344L170.2,60.6816h-5.2343Z"/><path class="cls-3" d="M183.3232,52.123a3.925,3.925,0,0,0-2.8457-1.4517,3.425,3.425,0,0,0-3.2861,2.8082,2.3824,2.3824,0,0,0,2.4638,2.8081,4.9622,4.9622,0,0,0,3.2285-1.337l-1.0117,5.3873a12.4546,12.4546,0,0,1-3.8213.5727,6.01,6.01,0,0,1-6.1513-7.2974,9.0788,9.0788,0,0,1,8.7119-7.5654,10.05,10.05,0,0,1,3.4189.5923Z"/><path class="cls-3" d="M187.1035,60.6816h-5.54l7.2783-14.4043h5.7891l2.8652,14.4043h-5.54l-.1914-1.7959h-3.9541Zm4.2793-5.2153-.21-2.541c-.0576-.6114-.0381-1.2417-.0381-1.8531h-.1914l-1.6621,4.3941Z"/><path class="cls-3" d="M199.5185,46.2773h5.2344l-1.5479,9.7813H207.6l-.7266,4.623h-9.6278Z"/></g><g id="Red"><path class="cls-4" d="M111.8632,21.0986l7.8067-.2925-6.55,21.582h14.0048l6.55-21.582,7.629.2925,3.1093-10.2471h-29.44Z"/><path class="cls-4" d="M82.8652,26.7036C80.9072,36.8252,70.1757,42.89,58.42,42.89S38.28,36.8252,40.2387,26.7036C42.1562,16.7905,53.0112,10.35,64.7158,10.35S84.7831,16.7905,82.8652,26.7036Zm-28.5528.167c-.6953,3.5971,1.7915,6.0649,6.0337,6.0649s7.6841-2.4678,8.38-6.0649c.6475-3.3457-1.57-6.148-6.0171-6.148S54.96,23.5249,54.3124,26.8706Z"/><path class="cls-4" d="M78.5126,40.0044A36.86,36.86,0,0,0,92.7763,42.89c8.3311,0,17.4336-3.7227,18.89-11.251,1.0361-5.354-2.7559-7.9472-8.4742-9.0346l-3.0556-.5855c-1.0327-.209-2.7383-.3765-2.5117-1.5478.2509-1.2964,2.1127-1.6729,3.3393-1.6729a14.2422,14.2422,0,0,1,7.6651,2.3838l5.3447-8.0723a23.7228,23.7228,0,0,0-11.6822-2.76c-8.3818,0-17.5224,4.1826-18.9707,11.6694-.955,4.9356,3.1353,7.57,8.4507,8.3652l2.73.418c1.2373.21,3.0532.335,2.7778,1.7568s-2.5615,1.8824-3.9419,1.8824a13.97,13.97,0,0,1-8.1816-2.8863l-.6265-.46Z"/><path class="cls-4" d="M171.6757,11.646a32.5413,32.5413,0,0,0-9.1543-1.2964c-11.2949,0-21.56,7.3613-23.3418,16.563C137.44,35.9052,144.6757,42.89,155.664,42.89c2.5049,0,7.791-.3765,10.21-1.2549l2.69-11.7949a14.778,14.778,0,0,1-8.59,2.9277c-4.1915,0-7.3028-2.6767-6.6309-6.1484.6631-3.43,4.6143-6.1484,8.8047-6.1484a11.3569,11.3569,0,0,1,7.6142,3.1787Z"/><path class="cls-4" d="M194.0976,10.35c-11.7041,0-22.56,6.4409-24.4775,16.354-1.958,10.1216,6.4267,16.1865,18.1826,16.1865s22.4862-6.0649,24.4452-16.1865C214.1649,16.7905,205.8027,10.35,194.0976,10.35Zm-2.0059,10.373c4.4463,0,6.6641,2.8023,6.0166,6.148-.6962,3.5971-4.1377,6.0649-8.38,6.0649s-6.73-2.4678-6.0332-6.0649C184.3417,23.5249,187.6445,20.7226,192.0917,20.7226Z"/><path class="cls-4" d="M206.1445,40.6543a2.7912,2.7912,0,0,1,2.7782-1.9937c1.33,0,2.2285.89,2.02,1.9937a2.8,2.8,0,0,1-2.78,1.9985C206.8261,42.6528,205.9335,41.7627,206.1445,40.6543Zm4.1727,0c.168-.89-.4707-1.4722-1.4941-1.4722a1.9519,1.9519,0,0,0-2.0527,1.4722c-.17.89.45,1.477,1.4931,1.477A1.9722,1.9722,0,0,0,210.3172,40.6543Zm-.8554,1.0424h-.62l-.3895-.8842h-.4054l-.1679.8842h-.5274l.3965-2.09h1.2148c.5352,0,.8252.1479.7325.6387a.6945.6945,0,0,1-.6719.5669Zm-.7686-1.2832c.2637,0,.4912,0,.5342-.2241.0351-.1841-.1933-.1841-.458-.1841h-.5713l-.0752.4082Z"/><path class="cls-4" d="M43.8505,4.5673A41.7886,41.7886,0,0,0,32.4335,3C18.3456,3,5.5414,11.8984,3.3217,23.021c-2.17,10.87,6.8545,19.3139,20.56,19.3139,3.1235,0,9.7163-.4555,12.7334-1.5171l3.3554-14.2573A18.8214,18.8214,0,0,1,29.2563,30.1c-5.2271,0-9.1074-3.2359-8.27-7.4322.8276-4.146,5.7544-7.4321,10.9814-7.4321a14.3918,14.3918,0,0,1,9.4966,3.8423Z"/></g></svg>
